<mxfile host="app.diagrams.net" modified="2023-08-07T14:09:43.216Z" agent="Mozilla/5.0 (Windows NT 10.0; Win64; x64) AppleWebKit/537.36 (KHTML, like Gecko) Chrome/115.0.0.0 Safari/537.36 Edg/115.0.1901.188" etag="AIGq_LlDEFkzgVMQQg9_" version="21.3.8" type="device">
  <diagram name="Page-1" id="929967ad-93f9-6ef4-fab6-5d389245f69c">
    <mxGraphModel dx="553" dy="310" grid="1" gridSize="10" guides="1" tooltips="1" connect="1" arrows="1" fold="1" page="1" pageScale="1.5" pageWidth="1169" pageHeight="826" background="none" math="0" shadow="0">
      <root>
        <mxCell id="0" style=";html=1;" />
        <mxCell id="1" style=";html=1;" parent="0" />
        <mxCell id="1672d66443f91eb5-23" value="Title" style="text;strokeColor=none;fillColor=none;html=1;fontSize=24;fontStyle=1;verticalAlign=middle;align=center;" parent="1" vertex="1">
          <mxGeometry x="120" y="40" width="1510" height="40" as="geometry" />
        </mxCell>
        <mxCell id="zgp2MCNclS-yNPdKTCmX-1" value="DriverProgram" style="swimlane;fontStyle=1;align=center;verticalAlign=top;childLayout=stackLayout;horizontal=1;startSize=26;horizontalStack=0;resizeParent=1;resizeParentMax=0;resizeLast=0;collapsible=1;marginBottom=0;whiteSpace=wrap;html=1;" parent="1" vertex="1">
          <mxGeometry x="610" y="440" width="190" height="86" as="geometry" />
        </mxCell>
        <mxCell id="zgp2MCNclS-yNPdKTCmX-2" value="+ UserInterface: ConsoleUI" style="text;strokeColor=none;fillColor=none;align=left;verticalAlign=top;spacingLeft=4;spacingRight=4;overflow=hidden;rotatable=0;points=[[0,0.5],[1,0.5]];portConstraint=eastwest;whiteSpace=wrap;html=1;" parent="zgp2MCNclS-yNPdKTCmX-1" vertex="1">
          <mxGeometry y="26" width="190" height="26" as="geometry" />
        </mxCell>
        <mxCell id="zgp2MCNclS-yNPdKTCmX-3" value="" style="line;strokeWidth=1;fillColor=none;align=left;verticalAlign=middle;spacingTop=-1;spacingLeft=3;spacingRight=3;rotatable=0;labelPosition=right;points=[];portConstraint=eastwest;strokeColor=inherit;" parent="zgp2MCNclS-yNPdKTCmX-1" vertex="1">
          <mxGeometry y="52" width="190" height="8" as="geometry" />
        </mxCell>
        <mxCell id="zgp2MCNclS-yNPdKTCmX-4" value="+ Main(String[] args): static void" style="text;strokeColor=none;fillColor=none;align=left;verticalAlign=top;spacingLeft=4;spacingRight=4;overflow=hidden;rotatable=0;points=[[0,0.5],[1,0.5]];portConstraint=eastwest;whiteSpace=wrap;html=1;" parent="zgp2MCNclS-yNPdKTCmX-1" vertex="1">
          <mxGeometry y="60" width="190" height="26" as="geometry" />
        </mxCell>
        <mxCell id="zgp2MCNclS-yNPdKTCmX-5" value="ConsoleUI" style="swimlane;fontStyle=1;align=center;verticalAlign=top;childLayout=stackLayout;horizontal=1;startSize=26;horizontalStack=0;resizeParent=1;resizeParentMax=0;resizeLast=0;collapsible=1;marginBottom=0;whiteSpace=wrap;html=1;" parent="1" vertex="1">
          <mxGeometry x="608" y="600" width="200" height="140" as="geometry" />
        </mxCell>
        <mxCell id="zgp2MCNclS-yNPdKTCmX-6" value="&lt;br&gt;" style="text;strokeColor=none;fillColor=none;align=left;verticalAlign=top;spacingLeft=4;spacingRight=4;overflow=hidden;rotatable=0;points=[[0,0.5],[1,0.5]];portConstraint=eastwest;whiteSpace=wrap;html=1;" parent="zgp2MCNclS-yNPdKTCmX-5" vertex="1">
          <mxGeometry y="26" width="200" height="44" as="geometry" />
        </mxCell>
        <mxCell id="zgp2MCNclS-yNPdKTCmX-7" value="" style="line;strokeWidth=1;fillColor=none;align=left;verticalAlign=middle;spacingTop=-1;spacingLeft=3;spacingRight=3;rotatable=0;labelPosition=right;points=[];portConstraint=eastwest;strokeColor=inherit;" parent="zgp2MCNclS-yNPdKTCmX-5" vertex="1">
          <mxGeometry y="70" width="200" height="8" as="geometry" />
        </mxCell>
        <mxCell id="zgp2MCNclS-yNPdKTCmX-8" value="+ run(): void&lt;br&gt;- showMenu(): void" style="text;strokeColor=none;fillColor=none;align=left;verticalAlign=top;spacingLeft=4;spacingRight=4;overflow=hidden;rotatable=0;points=[[0,0.5],[1,0.5]];portConstraint=eastwest;whiteSpace=wrap;html=1;" parent="zgp2MCNclS-yNPdKTCmX-5" vertex="1">
          <mxGeometry y="78" width="200" height="62" as="geometry" />
        </mxCell>
        <mxCell id="zgp2MCNclS-yNPdKTCmX-9" value="" style="endArrow=diamondThin;endFill=1;endSize=24;html=1;rounded=0;entryX=0.511;entryY=1.015;entryDx=0;entryDy=0;entryPerimeter=0;exitX=0.5;exitY=0;exitDx=0;exitDy=0;" parent="1" source="zgp2MCNclS-yNPdKTCmX-5" target="zgp2MCNclS-yNPdKTCmX-4" edge="1">
          <mxGeometry width="160" relative="1" as="geometry">
            <mxPoint x="620" y="570" as="sourcePoint" />
            <mxPoint x="780" y="570" as="targetPoint" />
          </mxGeometry>
        </mxCell>
        <mxCell id="zgp2MCNclS-yNPdKTCmX-10" value="FilesManager" style="swimlane;fontStyle=1;align=center;verticalAlign=top;childLayout=stackLayout;horizontal=1;startSize=26;horizontalStack=0;resizeParent=1;resizeParentMax=0;resizeLast=0;collapsible=1;marginBottom=0;whiteSpace=wrap;html=1;" parent="1" vertex="1">
          <mxGeometry x="190" y="603" width="320" height="120" as="geometry" />
        </mxCell>
        <mxCell id="zgp2MCNclS-yNPdKTCmX-12" value="" style="line;strokeWidth=1;fillColor=none;align=left;verticalAlign=middle;spacingTop=-1;spacingLeft=3;spacingRight=3;rotatable=0;labelPosition=right;points=[];portConstraint=eastwest;strokeColor=inherit;" parent="zgp2MCNclS-yNPdKTCmX-10" vertex="1">
          <mxGeometry y="26" width="320" height="34" as="geometry" />
        </mxCell>
        <mxCell id="zgp2MCNclS-yNPdKTCmX-13" value="+ readFile(String path): ArrayList&amp;lt;String&amp;gt;&lt;br&gt;+ writeFile(String path, ArrayList&amp;lt;String&amp;gt; _words): void" style="text;strokeColor=none;fillColor=none;align=left;verticalAlign=top;spacingLeft=4;spacingRight=4;overflow=hidden;rotatable=0;points=[[0,0.5],[1,0.5]];portConstraint=eastwest;whiteSpace=wrap;html=1;" parent="zgp2MCNclS-yNPdKTCmX-10" vertex="1">
          <mxGeometry y="60" width="320" height="60" as="geometry" />
        </mxCell>
        <mxCell id="zgp2MCNclS-yNPdKTCmX-15" value="" style="endArrow=diamondThin;endFill=0;endSize=24;html=1;rounded=0;exitX=1.003;exitY=-0.052;exitDx=0;exitDy=0;exitPerimeter=0;entryX=-0.01;entryY=0.755;entryDx=0;entryDy=0;entryPerimeter=0;" parent="1" source="zgp2MCNclS-yNPdKTCmX-13" target="zgp2MCNclS-yNPdKTCmX-6" edge="1">
          <mxGeometry width="160" relative="1" as="geometry">
            <mxPoint x="480" y="650" as="sourcePoint" />
            <mxPoint x="640" y="650" as="targetPoint" />
          </mxGeometry>
        </mxCell>
        <mxCell id="zgp2MCNclS-yNPdKTCmX-16" value="Analizer" style="swimlane;fontStyle=1;align=center;verticalAlign=top;childLayout=stackLayout;horizontal=1;startSize=26;horizontalStack=0;resizeParent=1;resizeParentMax=0;resizeLast=0;collapsible=1;marginBottom=0;whiteSpace=wrap;html=1;" parent="1" vertex="1">
          <mxGeometry x="900" y="601" width="330" height="146" as="geometry" />
        </mxCell>
        <mxCell id="zgp2MCNclS-yNPdKTCmX-18" value="" style="line;strokeWidth=1;fillColor=none;align=left;verticalAlign=middle;spacingTop=-1;spacingLeft=3;spacingRight=3;rotatable=0;labelPosition=right;points=[];portConstraint=eastwest;strokeColor=inherit;" parent="zgp2MCNclS-yNPdKTCmX-16" vertex="1">
          <mxGeometry y="26" width="330" height="44" as="geometry" />
        </mxCell>
        <mxCell id="zgp2MCNclS-yNPdKTCmX-17" value="&amp;nbsp;" style="text;strokeColor=none;fillColor=none;align=left;verticalAlign=top;spacingLeft=4;spacingRight=4;overflow=hidden;rotatable=0;points=[[0,0.5],[1,0.5]];portConstraint=eastwest;whiteSpace=wrap;html=1;" parent="zgp2MCNclS-yNPdKTCmX-16" vertex="1">
          <mxGeometry y="70" width="330" height="26" as="geometry" />
        </mxCell>
        <mxCell id="zgp2MCNclS-yNPdKTCmX-19" value="+ Analize(ArrayList&amp;lt;String&amp;gt; allWords): ArrayList&amp;lt;String&amp;gt;&lt;br&gt;+ isPalindrome(String word): Boolean" style="text;strokeColor=none;fillColor=none;align=left;verticalAlign=top;spacingLeft=4;spacingRight=4;overflow=hidden;rotatable=0;points=[[0,0.5],[1,0.5]];portConstraint=eastwest;whiteSpace=wrap;html=1;" parent="zgp2MCNclS-yNPdKTCmX-16" vertex="1">
          <mxGeometry y="96" width="330" height="50" as="geometry" />
        </mxCell>
        <mxCell id="zgp2MCNclS-yNPdKTCmX-20" value="" style="endArrow=diamondThin;endFill=0;endSize=24;html=1;rounded=0;entryX=1.009;entryY=0.831;entryDx=0;entryDy=0;entryPerimeter=0;" parent="1" target="zgp2MCNclS-yNPdKTCmX-6" edge="1">
          <mxGeometry width="160" relative="1" as="geometry">
            <mxPoint x="900" y="663" as="sourcePoint" />
            <mxPoint x="960" y="570" as="targetPoint" />
          </mxGeometry>
        </mxCell>
      </root>
    </mxGraphModel>
  </diagram>
</mxfile>
